<?xml version="1.0" encoding="UTF-8"?>
<svg xmlns="http://www.w3.org/2000/svg" xmlns:xlink="http://www.w3.org/1999/xlink" width="854" height="480" viewBox="0 0 854 480">
<defs>
<g>
<g id="glyph-0-0">
<path d="M 3.347656 -5.773438 C 3.503906 -5.605469 3.625 -5.414062 3.699219 -5.207031 C 3.777344 -4.996094 3.816406 -4.765625 3.816406 -4.519531 C 3.816406 -3.984375 3.644531 -3.546875 3.304688 -3.207031 C 2.960938 -2.871094 2.492188 -2.664062 1.898438 -2.59375 L 1.898438 -1.636719 L 1.496094 -1.636719 L 1.496094 -3.28125 C 1.679688 -3.296875 1.859375 -3.324219 2.039062 -3.371094 C 2.21875 -3.414062 2.378906 -3.488281 2.523438 -3.589844 C 2.667969 -3.699219 2.785156 -3.828125 2.867188 -3.980469 C 2.949219 -4.132812 2.992188 -4.34375 2.992188 -4.617188 C 2.992188 -5.050781 2.898438 -5.382812 2.714844 -5.617188 C 2.53125 -5.847656 2.261719 -5.964844 1.910156 -5.964844 C 1.777344 -5.964844 1.660156 -5.945312 1.558594 -5.90625 C 1.460938 -5.867188 1.386719 -5.828125 1.339844 -5.792969 C 1.355469 -5.726562 1.375 -5.625 1.398438 -5.496094 C 1.425781 -5.363281 1.4375 -5.265625 1.4375 -5.195312 C 1.4375 -5.089844 1.390625 -4.992188 1.296875 -4.902344 C 1.207031 -4.8125 1.070312 -4.769531 0.894531 -4.769531 C 0.738281 -4.769531 0.625 -4.824219 0.558594 -4.929688 C 0.492188 -5.039062 0.460938 -5.164062 0.460938 -5.304688 C 0.460938 -5.417969 0.492188 -5.535156 0.554688 -5.644531 C 0.621094 -5.757812 0.71875 -5.863281 0.855469 -5.96875 C 0.972656 -6.0625 1.128906 -6.140625 1.324219 -6.207031 C 1.523438 -6.273438 1.730469 -6.308594 1.945312 -6.308594 C 2.25 -6.308594 2.523438 -6.257812 2.761719 -6.160156 C 2.996094 -6.0625 3.191406 -5.933594 3.347656 -5.773438 M 2.304688 -0.5 C 2.304688 -0.335938 2.246094 -0.199219 2.128906 -0.0859375 C 2.011719 0.03125 1.871094 0.0859375 1.710938 0.0859375 C 1.546875 0.0859375 1.410156 0.03125 1.292969 -0.0859375 C 1.175781 -0.199219 1.117188 -0.335938 1.117188 -0.5 C 1.117188 -0.660156 1.175781 -0.800781 1.292969 -0.917969 C 1.410156 -1.035156 1.546875 -1.09375 1.710938 -1.09375 C 1.871094 -1.09375 2.011719 -1.035156 2.128906 -0.917969 C 2.246094 -0.800781 2.304688 -0.660156 2.304688 -0.5 Z "/>
</g>
</g>
</defs>
<g fill="rgb(98.823529%, 38.431373%, 33.333333%)" fill-opacity="1">
<use xlink:href="#glyph-0-0" x="30" y="28.150391"/>
</g>
</svg>
