<?xml version="1.0" encoding="UTF-8"?>
<svg xmlns="http://www.w3.org/2000/svg" xmlns:xlink="http://www.w3.org/1999/xlink" width="854" height="480" viewBox="0 0 854 480">
<defs>
<g>
<g id="glyph-0-0">
<path d="M 3.136719 0.148438 C 2.769531 0.148438 2.417969 0.0742188 2.078125 -0.0703125 C 1.742188 -0.214844 1.445312 -0.421875 1.183594 -0.695312 C 0.925781 -0.96875 0.722656 -1.300781 0.570312 -1.691406 C 0.414062 -2.085938 0.339844 -2.527344 0.339844 -3.019531 C 0.339844 -3.511719 0.414062 -3.957031 0.5625 -4.359375 C 0.714844 -4.761719 0.921875 -5.105469 1.1875 -5.394531 C 1.453125 -5.679688 1.761719 -5.902344 2.121094 -6.058594 C 2.480469 -6.214844 2.863281 -6.292969 3.269531 -6.292969 C 3.574219 -6.292969 3.847656 -6.257812 4.09375 -6.179688 C 4.339844 -6.105469 4.574219 -6 4.796875 -5.863281 L 4.972656 -6.160156 L 5.320312 -6.160156 L 5.359375 -3.960938 L 5.003906 -3.960938 C 4.957031 -4.175781 4.890625 -4.410156 4.796875 -4.660156 C 4.703125 -4.910156 4.59375 -5.121094 4.472656 -5.296875 C 4.332031 -5.492188 4.167969 -5.644531 3.976562 -5.757812 C 3.785156 -5.867188 3.566406 -5.925781 3.324219 -5.925781 C 3.042969 -5.925781 2.78125 -5.863281 2.539062 -5.738281 C 2.296875 -5.613281 2.089844 -5.429688 1.914062 -5.1875 C 1.746094 -4.953125 1.613281 -4.652344 1.519531 -4.292969 C 1.421875 -3.929688 1.375 -3.527344 1.375 -3.078125 C 1.375 -2.6875 1.425781 -2.324219 1.527344 -1.996094 C 1.625 -1.667969 1.769531 -1.378906 1.953125 -1.128906 C 2.136719 -0.882812 2.355469 -0.691406 2.609375 -0.550781 C 2.863281 -0.414062 3.144531 -0.34375 3.457031 -0.34375 C 3.691406 -0.34375 3.90625 -0.378906 4.101562 -0.453125 C 4.300781 -0.527344 4.46875 -0.625 4.613281 -0.746094 C 4.757812 -0.875 4.886719 -1.019531 4.996094 -1.179688 C 5.105469 -1.34375 5.195312 -1.519531 5.265625 -1.710938 L 5.589844 -1.554688 C 5.34375 -0.941406 5.011719 -0.507812 4.601562 -0.246094 C 4.191406 0.015625 3.703125 0.148438 3.136719 0.148438 Z "/>
</g>
<g id="glyph-0-1">
<path d="M 4.367188 -0.078125 C 4.230469 -0.0273438 4.109375 0.0117188 4.007812 0.0429688 C 3.90625 0.0703125 3.789062 0.0859375 3.660156 0.0859375 C 3.433594 0.0859375 3.253906 0.0351562 3.117188 -0.0703125 C 2.984375 -0.175781 2.898438 -0.332031 2.859375 -0.535156 L 2.835938 -0.535156 C 2.644531 -0.324219 2.445312 -0.167969 2.230469 -0.0546875 C 2.011719 0.0546875 1.753906 0.109375 1.449219 0.109375 C 1.128906 0.109375 0.863281 0.0117188 0.65625 -0.1875 C 0.449219 -0.382812 0.347656 -0.640625 0.347656 -0.960938 C 0.347656 -1.125 0.371094 -1.273438 0.417969 -1.402344 C 0.464844 -1.53125 0.53125 -1.648438 0.625 -1.753906 C 0.699219 -1.839844 0.792969 -1.917969 0.910156 -1.984375 C 1.03125 -2.054688 1.140625 -2.109375 1.246094 -2.148438 C 1.375 -2.199219 1.640625 -2.289062 2.039062 -2.421875 C 2.4375 -2.554688 2.703125 -2.660156 2.84375 -2.734375 L 2.84375 -3.164062 C 2.84375 -3.203125 2.835938 -3.273438 2.820312 -3.382812 C 2.804688 -3.488281 2.769531 -3.589844 2.71875 -3.683594 C 2.660156 -3.792969 2.578125 -3.886719 2.472656 -3.964844 C 2.367188 -4.042969 2.214844 -4.085938 2.023438 -4.085938 C 1.890625 -4.085938 1.765625 -4.0625 1.652344 -4.015625 C 1.539062 -3.972656 1.457031 -3.925781 1.410156 -3.875 C 1.410156 -3.816406 1.425781 -3.734375 1.453125 -3.621094 C 1.480469 -3.507812 1.492188 -3.402344 1.492188 -3.308594 C 1.492188 -3.207031 1.449219 -3.113281 1.355469 -3.03125 C 1.265625 -2.945312 1.136719 -2.902344 0.976562 -2.902344 C 0.832031 -2.902344 0.726562 -2.957031 0.65625 -3.058594 C 0.589844 -3.160156 0.554688 -3.277344 0.554688 -3.402344 C 0.554688 -3.535156 0.601562 -3.664062 0.695312 -3.785156 C 0.789062 -3.90625 0.914062 -4.015625 1.0625 -4.109375 C 1.195312 -4.191406 1.351562 -4.261719 1.535156 -4.316406 C 1.722656 -4.371094 1.902344 -4.402344 2.078125 -4.402344 C 2.320312 -4.402344 2.535156 -4.382812 2.714844 -4.351562 C 2.894531 -4.316406 3.058594 -4.246094 3.207031 -4.136719 C 3.355469 -4.03125 3.46875 -3.882812 3.542969 -3.699219 C 3.621094 -3.515625 3.660156 -3.28125 3.660156 -2.992188 C 3.660156 -2.578125 3.65625 -2.210938 3.644531 -1.890625 C 3.636719 -1.570312 3.632812 -1.222656 3.632812 -0.84375 C 3.632812 -0.730469 3.652344 -0.640625 3.691406 -0.574219 C 3.730469 -0.507812 3.789062 -0.449219 3.871094 -0.402344 C 3.914062 -0.378906 3.984375 -0.363281 4.078125 -0.359375 C 4.171875 -0.355469 4.269531 -0.355469 4.367188 -0.355469 L 4.367188 -0.078125 M 2.851562 -2.371094 C 2.605469 -2.296875 2.390625 -2.226562 2.203125 -2.15625 C 2.019531 -2.085938 1.847656 -2 1.6875 -1.894531 C 1.542969 -1.796875 1.429688 -1.679688 1.34375 -1.546875 C 1.261719 -1.410156 1.21875 -1.25 1.21875 -1.066406 C 1.21875 -0.824219 1.28125 -0.648438 1.410156 -0.535156 C 1.535156 -0.421875 1.695312 -0.363281 1.886719 -0.363281 C 2.09375 -0.363281 2.273438 -0.414062 2.429688 -0.515625 C 2.585938 -0.613281 2.71875 -0.734375 2.824219 -0.871094 Z "/>
</g>
<g id="glyph-0-2">
<path d="M 2.316406 0 L 0.230469 0 L 0.230469 -0.285156 C 0.296875 -0.292969 0.367188 -0.296875 0.441406 -0.304688 C 0.519531 -0.3125 0.582031 -0.324219 0.628906 -0.339844 C 0.710938 -0.363281 0.769531 -0.410156 0.8125 -0.476562 C 0.851562 -0.539062 0.871094 -0.625 0.871094 -0.730469 L 0.871094 -5.691406 C 0.871094 -5.792969 0.851562 -5.890625 0.804688 -5.984375 C 0.761719 -6.074219 0.703125 -6.144531 0.628906 -6.199219 C 0.578125 -6.234375 0.480469 -6.265625 0.34375 -6.292969 C 0.203125 -6.324219 0.09375 -6.339844 0.0078125 -6.347656 L 0.0078125 -6.625 L 1.617188 -6.71875 L 1.679688 -6.652344 L 1.679688 -0.78125 C 1.679688 -0.679688 1.699219 -0.597656 1.734375 -0.53125 C 1.773438 -0.464844 1.835938 -0.417969 1.917969 -0.382812 C 1.980469 -0.351562 2.046875 -0.332031 2.105469 -0.316406 C 2.167969 -0.300781 2.238281 -0.292969 2.316406 -0.285156 Z "/>
</g>
<g id="glyph-0-3">
<path d="M 2.292969 0.113281 C 1.671875 0.113281 1.1875 -0.09375 0.835938 -0.503906 C 0.488281 -0.914062 0.3125 -1.464844 0.3125 -2.15625 C 0.3125 -2.457031 0.359375 -2.738281 0.453125 -3 C 0.546875 -3.261719 0.683594 -3.5 0.863281 -3.714844 C 1.035156 -3.921875 1.25 -4.085938 1.507812 -4.210938 C 1.765625 -4.339844 2.042969 -4.402344 2.347656 -4.402344 C 2.769531 -4.402344 3.109375 -4.300781 3.371094 -4.097656 C 3.636719 -3.898438 3.765625 -3.625 3.765625 -3.277344 C 3.765625 -3.132812 3.734375 -3.003906 3.664062 -2.894531 C 3.59375 -2.78125 3.480469 -2.726562 3.320312 -2.726562 C 3.148438 -2.726562 3.015625 -2.769531 2.921875 -2.855469 C 2.828125 -2.941406 2.78125 -3.039062 2.78125 -3.144531 C 2.78125 -3.273438 2.800781 -3.410156 2.835938 -3.546875 C 2.867188 -3.683594 2.890625 -3.78125 2.894531 -3.847656 C 2.84375 -3.9375 2.765625 -3.996094 2.664062 -4.027344 C 2.5625 -4.054688 2.449219 -4.070312 2.332031 -4.070312 C 2.195312 -4.070312 2.0625 -4.042969 1.9375 -3.980469 C 1.8125 -3.921875 1.6875 -3.8125 1.570312 -3.65625 C 1.464844 -3.511719 1.375 -3.316406 1.3125 -3.070312 C 1.246094 -2.824219 1.210938 -2.527344 1.210938 -2.1875 C 1.210938 -1.648438 1.332031 -1.210938 1.570312 -0.871094 C 1.808594 -0.53125 2.121094 -0.359375 2.507812 -0.359375 C 2.785156 -0.359375 3.023438 -0.429688 3.210938 -0.566406 C 3.398438 -0.703125 3.574219 -0.90625 3.738281 -1.179688 L 4.015625 -1 C 3.824219 -0.65625 3.570312 -0.386719 3.257812 -0.1875 C 2.945312 0.0117188 2.625 0.113281 2.292969 0.113281 Z "/>
</g>
<g id="glyph-0-4">
<path d="M 4.902344 -0.078125 L 3.503906 0.015625 L 3.4375 -0.0429688 L 3.4375 -0.585938 L 3.410156 -0.585938 C 3.34375 -0.511719 3.265625 -0.4375 3.175781 -0.355469 C 3.089844 -0.269531 2.992188 -0.195312 2.878906 -0.128906 C 2.75 -0.0507812 2.621094 0.0078125 2.5 0.046875 C 2.378906 0.0898438 2.207031 0.109375 1.984375 0.109375 C 1.609375 0.109375 1.320312 -0.015625 1.121094 -0.261719 C 0.921875 -0.507812 0.824219 -0.867188 0.824219 -1.339844 L 0.824219 -3.386719 C 0.824219 -3.488281 0.804688 -3.578125 0.765625 -3.648438 C 0.726562 -3.71875 0.667969 -3.78125 0.59375 -3.832031 C 0.539062 -3.867188 0.476562 -3.894531 0.398438 -3.910156 C 0.316406 -3.925781 0.234375 -3.933594 0.148438 -3.941406 L 0.148438 -4.226562 L 1.574219 -4.332031 L 1.640625 -4.269531 L 1.640625 -1.296875 C 1.640625 -0.988281 1.710938 -0.753906 1.847656 -0.597656 C 1.988281 -0.441406 2.15625 -0.363281 2.347656 -0.363281 C 2.507812 -0.363281 2.648438 -0.390625 2.773438 -0.4375 C 2.898438 -0.488281 3.003906 -0.546875 3.085938 -0.613281 C 3.164062 -0.671875 3.234375 -0.738281 3.292969 -0.804688 C 3.351562 -0.871094 3.398438 -0.933594 3.429688 -0.992188 L 3.429688 -3.417969 C 3.429688 -3.511719 3.410156 -3.597656 3.367188 -3.671875 C 3.328125 -3.742188 3.269531 -3.808594 3.199219 -3.859375 C 3.148438 -3.894531 3.070312 -3.914062 2.964844 -3.921875 C 2.863281 -3.929688 2.75 -3.933594 2.621094 -3.941406 L 2.621094 -4.226562 L 4.179688 -4.332031 L 4.246094 -4.269531 L 4.246094 -0.875 C 4.246094 -0.777344 4.265625 -0.695312 4.304688 -0.625 C 4.347656 -0.554688 4.402344 -0.496094 4.476562 -0.445312 C 4.527344 -0.414062 4.589844 -0.394531 4.660156 -0.382812 C 4.734375 -0.375 4.8125 -0.367188 4.902344 -0.363281 Z "/>
</g>
<g id="glyph-0-5">
<path d="M 3.136719 -2.097656 C 3.257812 -1.992188 3.347656 -1.871094 3.410156 -1.734375 C 3.476562 -1.601562 3.507812 -1.433594 3.507812 -1.238281 C 3.507812 -0.839844 3.359375 -0.515625 3.0625 -0.265625 C 2.765625 -0.0117188 2.382812 0.113281 1.910156 0.113281 C 1.660156 0.113281 1.429688 0.0664062 1.222656 -0.0234375 C 1.011719 -0.113281 0.863281 -0.195312 0.773438 -0.269531 L 0.6875 0.0117188 L 0.359375 0.0117188 L 0.316406 -1.476562 L 0.617188 -1.476562 C 0.640625 -1.363281 0.6875 -1.230469 0.765625 -1.078125 C 0.839844 -0.929688 0.929688 -0.792969 1.039062 -0.671875 C 1.148438 -0.542969 1.285156 -0.433594 1.441406 -0.347656 C 1.601562 -0.261719 1.777344 -0.21875 1.976562 -0.21875 C 2.253906 -0.21875 2.46875 -0.28125 2.617188 -0.40625 C 2.769531 -0.535156 2.84375 -0.714844 2.84375 -0.949219 C 2.84375 -1.070312 2.820312 -1.175781 2.769531 -1.265625 C 2.722656 -1.351562 2.652344 -1.429688 2.5625 -1.496094 C 2.464844 -1.5625 2.347656 -1.625 2.210938 -1.675781 C 2.070312 -1.730469 1.914062 -1.785156 1.746094 -1.835938 C 1.609375 -1.875 1.457031 -1.933594 1.292969 -2.003906 C 1.125 -2.074219 0.980469 -2.15625 0.863281 -2.253906 C 0.738281 -2.355469 0.632812 -2.476562 0.550781 -2.625 C 0.46875 -2.773438 0.429688 -2.945312 0.429688 -3.148438 C 0.429688 -3.496094 0.558594 -3.792969 0.820312 -4.035156 C 1.082031 -4.28125 1.429688 -4.402344 1.867188 -4.402344 C 2.035156 -4.402344 2.207031 -4.378906 2.378906 -4.335938 C 2.554688 -4.292969 2.699219 -4.242188 2.808594 -4.179688 L 2.90625 -4.40625 L 3.21875 -4.40625 L 3.285156 -3.03125 L 2.984375 -3.03125 C 2.925781 -3.335938 2.792969 -3.589844 2.59375 -3.78125 C 2.390625 -3.976562 2.148438 -4.070312 1.859375 -4.070312 C 1.621094 -4.070312 1.433594 -4.011719 1.296875 -3.890625 C 1.160156 -3.773438 1.09375 -3.628906 1.09375 -3.460938 C 1.09375 -3.328125 1.117188 -3.21875 1.160156 -3.132812 C 1.207031 -3.046875 1.273438 -2.972656 1.363281 -2.914062 C 1.449219 -2.855469 1.558594 -2.800781 1.691406 -2.75 C 1.824219 -2.699219 1.984375 -2.640625 2.179688 -2.578125 C 2.371094 -2.515625 2.550781 -2.445312 2.71875 -2.367188 C 2.886719 -2.285156 3.027344 -2.195312 3.136719 -2.097656 Z "/>
</g>
</g>
</defs>
<g fill="rgb(100%, 100%, 100%)" fill-opacity="1">
<use xlink:href="#glyph-0-0" x="30" y="28.150391"/>
<use xlink:href="#glyph-0-1" x="36" y="28.150391"/>
<use xlink:href="#glyph-0-2" x="40" y="28.150391"/>
<use xlink:href="#glyph-0-3" x="43" y="28.150391"/>
<use xlink:href="#glyph-0-4" x="47" y="28.150391"/>
<use xlink:href="#glyph-0-2" x="52" y="28.150391"/>
<use xlink:href="#glyph-0-4" x="55" y="28.150391"/>
<use xlink:href="#glyph-0-5" x="60" y="28.150391"/>
</g>
</svg>
