<?xml version="1.0" encoding="UTF-8"?>
<svg xmlns="http://www.w3.org/2000/svg" xmlns:xlink="http://www.w3.org/1999/xlink" width="854" height="480" viewBox="0 0 854 480">
<defs>
<g>
<g id="glyph-0-0">
<path d="M 1.765625 0.722656 C 1.613281 0.722656 1.476562 0.710938 1.355469 0.691406 C 1.234375 0.671875 1.132812 0.628906 1.050781 0.574219 C 0.964844 0.511719 0.902344 0.433594 0.859375 0.335938 C 0.816406 0.234375 0.796875 0.105469 0.796875 -0.0585938 C 0.796875 -0.144531 0.800781 -0.238281 0.8125 -0.339844 C 0.824219 -0.441406 0.828125 -0.53125 0.828125 -0.609375 C 0.828125 -0.714844 0.8125 -0.800781 0.785156 -0.867188 C 0.753906 -0.9375 0.707031 -0.992188 0.648438 -1.035156 C 0.589844 -1.078125 0.519531 -1.105469 0.433594 -1.125 C 0.347656 -1.144531 0.257812 -1.15625 0.15625 -1.164062 L 0.15625 -1.445312 C 0.257812 -1.453125 0.351562 -1.46875 0.4375 -1.488281 C 0.527344 -1.511719 0.597656 -1.539062 0.652344 -1.578125 C 0.714844 -1.625 0.757812 -1.679688 0.785156 -1.75 C 0.816406 -1.820312 0.828125 -1.902344 0.828125 -2 C 0.828125 -2.082031 0.824219 -2.175781 0.8125 -2.273438 C 0.800781 -2.375 0.796875 -2.46875 0.796875 -2.554688 C 0.796875 -2.703125 0.816406 -2.832031 0.859375 -2.933594 C 0.902344 -3.035156 0.964844 -3.117188 1.050781 -3.179688 C 1.132812 -3.238281 1.234375 -3.277344 1.359375 -3.300781 C 1.480469 -3.324219 1.617188 -3.335938 1.765625 -3.335938 L 1.765625 -3.15625 C 1.707031 -3.15625 1.640625 -3.148438 1.566406 -3.132812 C 1.488281 -3.121094 1.429688 -3.105469 1.382812 -3.078125 C 1.332031 -3.050781 1.289062 -3.003906 1.257812 -2.941406 C 1.226562 -2.878906 1.207031 -2.792969 1.207031 -2.6875 L 1.207031 -2.179688 C 1.207031 -2.027344 1.191406 -1.902344 1.152344 -1.800781 C 1.117188 -1.703125 1.0625 -1.621094 0.992188 -1.558594 C 0.929688 -1.5 0.851562 -1.453125 0.761719 -1.421875 C 0.671875 -1.386719 0.570312 -1.359375 0.460938 -1.339844 L 0.460938 -1.273438 C 0.566406 -1.25 0.664062 -1.222656 0.753906 -1.191406 C 0.847656 -1.15625 0.925781 -1.113281 0.992188 -1.050781 C 1.0625 -0.992188 1.113281 -0.910156 1.152344 -0.8125 C 1.191406 -0.710938 1.207031 -0.585938 1.207031 -0.433594 L 1.207031 0.0742188 C 1.207031 0.175781 1.222656 0.257812 1.253906 0.324219 C 1.285156 0.386719 1.328125 0.433594 1.382812 0.46875 C 1.4375 0.5 1.5 0.519531 1.570312 0.53125 C 1.640625 0.539062 1.707031 0.546875 1.765625 0.550781 Z "/>
</g>
<g id="glyph-0-1">
<path d="M 2.183594 -0.0390625 C 2.113281 -0.015625 2.054688 0.00390625 2.003906 0.0195312 C 1.953125 0.0351562 1.894531 0.0429688 1.828125 0.0429688 C 1.714844 0.0429688 1.625 0.015625 1.558594 -0.0351562 C 1.492188 -0.0898438 1.449219 -0.164062 1.429688 -0.265625 L 1.417969 -0.265625 C 1.324219 -0.164062 1.222656 -0.0820312 1.113281 -0.0273438 C 1.007812 0.0273438 0.875 0.0546875 0.726562 0.0546875 C 0.5625 0.0546875 0.433594 0.00390625 0.328125 -0.09375 C 0.226562 -0.191406 0.171875 -0.320312 0.171875 -0.480469 C 0.171875 -0.5625 0.183594 -0.636719 0.207031 -0.699219 C 0.230469 -0.765625 0.265625 -0.824219 0.3125 -0.875 C 0.347656 -0.921875 0.394531 -0.957031 0.457031 -0.992188 C 0.515625 -1.027344 0.570312 -1.054688 0.621094 -1.074219 C 0.6875 -1.097656 0.820312 -1.144531 1.019531 -1.210938 C 1.21875 -1.277344 1.351562 -1.328125 1.421875 -1.367188 L 1.421875 -1.582031 C 1.421875 -1.601562 1.417969 -1.636719 1.410156 -1.691406 C 1.402344 -1.742188 1.382812 -1.792969 1.359375 -1.84375 C 1.328125 -1.894531 1.289062 -1.941406 1.234375 -1.980469 C 1.183594 -2.023438 1.109375 -2.042969 1.011719 -2.042969 C 0.945312 -2.042969 0.882812 -2.03125 0.824219 -2.007812 C 0.769531 -1.984375 0.726562 -1.960938 0.707031 -1.9375 C 0.707031 -1.910156 0.710938 -1.867188 0.726562 -1.808594 C 0.738281 -1.753906 0.746094 -1.703125 0.746094 -1.652344 C 0.746094 -1.601562 0.722656 -1.554688 0.679688 -1.515625 C 0.632812 -1.472656 0.570312 -1.453125 0.488281 -1.453125 C 0.414062 -1.453125 0.363281 -1.476562 0.328125 -1.527344 C 0.292969 -1.578125 0.277344 -1.636719 0.277344 -1.703125 C 0.277344 -1.769531 0.300781 -1.832031 0.347656 -1.890625 C 0.394531 -1.953125 0.457031 -2.007812 0.53125 -2.054688 C 0.597656 -2.09375 0.675781 -2.128906 0.769531 -2.15625 C 0.859375 -2.1875 0.949219 -2.199219 1.039062 -2.199219 C 1.160156 -2.199219 1.265625 -2.191406 1.355469 -2.175781 C 1.449219 -2.160156 1.53125 -2.121094 1.605469 -2.066406 C 1.675781 -2.015625 1.734375 -1.941406 1.773438 -1.851562 C 1.808594 -1.757812 1.828125 -1.640625 1.828125 -1.496094 C 1.828125 -1.289062 1.828125 -1.105469 1.824219 -0.945312 C 1.820312 -0.785156 1.816406 -0.609375 1.816406 -0.421875 C 1.816406 -0.363281 1.824219 -0.320312 1.84375 -0.285156 C 1.863281 -0.253906 1.894531 -0.226562 1.9375 -0.203125 C 1.957031 -0.1875 1.992188 -0.179688 2.039062 -0.179688 C 2.085938 -0.179688 2.132812 -0.179688 2.183594 -0.179688 L 2.183594 -0.0390625 M 1.425781 -1.183594 C 1.300781 -1.148438 1.195312 -1.113281 1.101562 -1.078125 C 1.007812 -1.042969 0.921875 -1 0.84375 -0.949219 C 0.773438 -0.898438 0.714844 -0.839844 0.671875 -0.773438 C 0.628906 -0.707031 0.609375 -0.625 0.609375 -0.53125 C 0.609375 -0.410156 0.640625 -0.324219 0.703125 -0.265625 C 0.765625 -0.210938 0.847656 -0.183594 0.945312 -0.183594 C 1.046875 -0.183594 1.136719 -0.207031 1.214844 -0.257812 C 1.292969 -0.308594 1.359375 -0.367188 1.414062 -0.433594 Z "/>
</g>
<g id="glyph-0-2">
<path d="M 0.929688 -0.0742188 C 0.929688 0.0273438 0.90625 0.125 0.859375 0.21875 C 0.8125 0.3125 0.757812 0.390625 0.699219 0.457031 C 0.636719 0.527344 0.570312 0.589844 0.5 0.640625 C 0.433594 0.695312 0.367188 0.738281 0.308594 0.769531 L 0.210938 0.621094 C 0.28125 0.578125 0.34375 0.535156 0.398438 0.492188 C 0.453125 0.449219 0.496094 0.40625 0.53125 0.363281 C 0.574219 0.3125 0.613281 0.257812 0.640625 0.199219 C 0.671875 0.136719 0.691406 0.0703125 0.699219 -0.00390625 L 0.589844 -0.00390625 C 0.492188 -0.00390625 0.417969 -0.03125 0.363281 -0.0820312 C 0.308594 -0.132812 0.28125 -0.199219 0.28125 -0.285156 C 0.28125 -0.34375 0.308594 -0.402344 0.355469 -0.460938 C 0.40625 -0.519531 0.472656 -0.546875 0.558594 -0.546875 C 0.683594 -0.546875 0.773438 -0.503906 0.835938 -0.421875 C 0.898438 -0.339844 0.929688 -0.222656 0.929688 -0.0742188 Z "/>
</g>
<g id="glyph-0-3">
<path d="M 1.144531 0.0546875 C 0.835938 0.0546875 0.59375 -0.046875 0.417969 -0.25 C 0.242188 -0.457031 0.15625 -0.734375 0.15625 -1.078125 C 0.15625 -1.230469 0.179688 -1.371094 0.226562 -1.5 C 0.273438 -1.632812 0.34375 -1.75 0.433594 -1.859375 C 0.515625 -1.960938 0.625 -2.042969 0.753906 -2.105469 C 0.882812 -2.167969 1.023438 -2.199219 1.175781 -2.199219 C 1.382812 -2.199219 1.554688 -2.148438 1.6875 -2.050781 C 1.816406 -1.949219 1.882812 -1.8125 1.882812 -1.636719 C 1.882812 -1.566406 1.867188 -1.5 1.832031 -1.445312 C 1.796875 -1.390625 1.738281 -1.363281 1.660156 -1.363281 C 1.574219 -1.363281 1.507812 -1.382812 1.460938 -1.425781 C 1.414062 -1.472656 1.390625 -1.519531 1.390625 -1.574219 C 1.390625 -1.636719 1.398438 -1.703125 1.417969 -1.773438 C 1.433594 -1.839844 1.445312 -1.890625 1.449219 -1.921875 C 1.421875 -1.96875 1.382812 -1.996094 1.332031 -2.011719 C 1.28125 -2.027344 1.226562 -2.035156 1.164062 -2.035156 C 1.097656 -2.035156 1.03125 -2.019531 0.96875 -1.992188 C 0.90625 -1.960938 0.84375 -1.90625 0.785156 -1.828125 C 0.730469 -1.753906 0.6875 -1.65625 0.65625 -1.535156 C 0.621094 -1.410156 0.605469 -1.265625 0.605469 -1.09375 C 0.605469 -0.824219 0.664062 -0.605469 0.785156 -0.433594 C 0.902344 -0.265625 1.058594 -0.179688 1.253906 -0.179688 C 1.394531 -0.179688 1.511719 -0.214844 1.605469 -0.28125 C 1.699219 -0.351562 1.789062 -0.453125 1.867188 -0.589844 L 2.007812 -0.5 C 1.910156 -0.328125 1.785156 -0.191406 1.628906 -0.09375 C 1.472656 0.0078125 1.3125 0.0546875 1.144531 0.0546875 Z "/>
</g>
<g id="glyph-0-4">
<path d="M 1.753906 -1.164062 C 1.65625 -1.15625 1.5625 -1.144531 1.476562 -1.125 C 1.390625 -1.105469 1.320312 -1.074219 1.261719 -1.035156 C 1.203125 -0.992188 1.160156 -0.9375 1.128906 -0.867188 C 1.097656 -0.800781 1.082031 -0.714844 1.082031 -0.609375 C 1.082031 -0.53125 1.089844 -0.441406 1.097656 -0.339844 C 1.109375 -0.238281 1.117188 -0.144531 1.117188 -0.0585938 C 1.117188 0.105469 1.09375 0.234375 1.050781 0.335938 C 1.007812 0.433594 0.945312 0.511719 0.863281 0.574219 C 0.78125 0.628906 0.679688 0.667969 0.554688 0.691406 C 0.433594 0.710938 0.296875 0.722656 0.144531 0.722656 L 0.144531 0.550781 C 0.203125 0.546875 0.269531 0.539062 0.34375 0.53125 C 0.414062 0.519531 0.476562 0.5 0.527344 0.46875 C 0.585938 0.433594 0.628906 0.386719 0.65625 0.324219 C 0.6875 0.257812 0.703125 0.175781 0.703125 0.0742188 L 0.703125 -0.433594 C 0.703125 -0.585938 0.722656 -0.710938 0.757812 -0.8125 C 0.796875 -0.910156 0.851562 -0.992188 0.917969 -1.050781 C 0.984375 -1.113281 1.0625 -1.15625 1.15625 -1.191406 C 1.25 -1.222656 1.347656 -1.25 1.449219 -1.273438 L 1.449219 -1.339844 C 1.339844 -1.359375 1.242188 -1.386719 1.152344 -1.421875 C 1.0625 -1.453125 0.984375 -1.5 0.917969 -1.558594 C 0.847656 -1.621094 0.792969 -1.703125 0.757812 -1.800781 C 0.722656 -1.902344 0.703125 -2.027344 0.703125 -2.179688 L 0.703125 -2.6875 C 0.703125 -2.792969 0.6875 -2.878906 0.65625 -2.941406 C 0.621094 -3.003906 0.578125 -3.050781 0.527344 -3.078125 C 0.484375 -3.105469 0.421875 -3.121094 0.347656 -3.132812 C 0.269531 -3.148438 0.203125 -3.15625 0.144531 -3.15625 L 0.144531 -3.335938 C 0.292969 -3.335938 0.429688 -3.324219 0.554688 -3.300781 C 0.675781 -3.277344 0.777344 -3.238281 0.863281 -3.179688 C 0.945312 -3.117188 1.007812 -3.035156 1.050781 -2.933594 C 1.09375 -2.832031 1.117188 -2.703125 1.117188 -2.554688 C 1.117188 -2.46875 1.109375 -2.375 1.097656 -2.273438 C 1.089844 -2.175781 1.082031 -2.082031 1.082031 -2 C 1.082031 -1.902344 1.097656 -1.820312 1.125 -1.75 C 1.152344 -1.679688 1.199219 -1.625 1.261719 -1.578125 C 1.3125 -1.542969 1.386719 -1.511719 1.472656 -1.492188 C 1.558594 -1.46875 1.652344 -1.453125 1.753906 -1.445312 Z "/>
</g>
</g>
</defs>
<g fill="rgb(100%, 100%, 100%)" fill-opacity="1">
<use xlink:href="#glyph-0-0" x="30" y="24.074219"/>
<use xlink:href="#glyph-0-1" x="32" y="24.074219"/>
<use xlink:href="#glyph-0-2" x="34" y="24.074219"/>
<use xlink:href="#glyph-0-3" x="35" y="24.074219"/>
<use xlink:href="#glyph-0-4" x="37" y="24.074219"/>
</g>
</svg>
